<svg height="478" width="720" xmlns="http://www.w3.org/2000/svg">
<rect height="478" fill="#555" width="720"></rect>
<text fill="#7f7" font-family="Courier New" font-size="12" xml:space="preserve">
<tspan x="10" y="26">13 megabytes installed</tspan>
<tspan x="10" y="42"></tspan>
<tspan x="10" y="58">node_modules</tspan>
<tspan x="10" y="74">└─┬ mysql-orm@0.0.8 </tspan>
<tspan x="10" y="90">  ├─┬ async@2.3.0 </tspan>
<tspan x="10" y="106">  │ └── lodash@4.17.4 </tspan>
<tspan x="10" y="122">  ├─┬ cli-color@1.2.0 </tspan>
<tspan x="10" y="138">  │ ├── ansi-regex@2.1.1 </tspan>
<tspan x="10" y="154">  │ ├── d@1.0.0 </tspan>
<tspan x="10" y="170">  │ ├─┬ es5-ext@0.10.15 </tspan>
<tspan x="10" y="186">  │ │ └── es6-symbol@3.1.1 </tspan>
<tspan x="10" y="202">  │ ├── es6-iterator@2.0.1 </tspan>
<tspan x="10" y="218">  │ ├─┬ memoizee@0.4.4 </tspan>
<tspan x="10" y="234">  │ │ ├── es6-weak-map@2.0.2 </tspan>
<tspan x="10" y="250">  │ │ ├── event-emitter@0.3.5 </tspan>
<tspan x="10" y="266">  │ │ ├── is-promise@2.1.0 </tspan>
<tspan x="10" y="282">  │ │ ├── lru-queue@0.1.0 </tspan>
<tspan x="10" y="298">  │ │ └── next-tick@1.0.0 </tspan>
<tspan x="10" y="314">  │ └── timers-ext@0.1.2 </tspan>
<tspan x="10" y="330">  ├─┬ mysql@2.13.0 </tspan>
<tspan x="10" y="346">  │ ├── bignumber.js@3.1.2 </tspan>
<tspan x="10" y="362">  │ ├─┬ readable-stream@1.1.14 </tspan>
<tspan x="10" y="378">  │ │ ├── core-util-is@1.0.2 </tspan>
<tspan x="10" y="394">  │ │ ├── inherits@2.0.3 </tspan>
<tspan x="10" y="410">  │ │ ├── isarray@0.0.1 </tspan>
<tspan x="10" y="426">  │ │ └── string_decoder@0.10.31 </tspan>
<tspan x="10" y="442">  │ └── sqlstring@2.2.0 </tspan>
<tspan x="10" y="458">  └── underscore@1.8.3</tspan>
</text>
</svg>
